<?xml version="1.0" encoding="UTF-8" standalone="no"?>
<!DOCTYPE svg PUBLIC "-//W3C//DTD SVG 1.1//EN"
 "http://www.w3.org/Graphics/SVG/1.1/DTD/svg11.dtd">
<!-- Generated by graphviz version 2.43.0 (0)
 -->
<!-- Title: %3 Pages: 1 -->
<svg width="286pt" height="227pt"
 viewBox="0.00 0.00 286.00 227.20" xmlns="http://www.w3.org/2000/svg" xmlns:xlink="http://www.w3.org/1999/xlink">
<g id="graph0" class="graph" transform="scale(1 1) rotate(0) translate(4 223.2)">
<title>%3</title>
<polygon fill="white" stroke="transparent" points="-4,4 -4,-223.2 282,-223.2 282,4 -4,4"/>
<!-- 0 -->
<g id="node1" class="node">
<title>0</title>
<polygon fill="none" stroke="black" points="192,-219.2 92,-219.2 92,-183.2 192,-183.2 192,-219.2"/>
<text text-anchor="middle" x="142" y="-199.8" font-family="Times,serif" font-size="14.00">有没有羽毛？</text>
</g>
<!-- 1 -->
<g id="node2" class="node">
<title>1</title>
<polygon fill="none" stroke="black" points="134,-127.6 48,-127.6 48,-91.6 134,-91.6 134,-127.6"/>
<text text-anchor="middle" x="91" y="-108.2" font-family="Times,serif" font-size="14.00">会不会飞？</text>
</g>
<!-- 0&#45;&gt;1 -->
<g id="edge1" class="edge">
<title>0&#45;&gt;1</title>
<path fill="none" stroke="black" d="M132.17,-182.92C124.69,-169.78 114.27,-151.49 105.79,-136.59"/>
<polygon fill="black" stroke="black" points="108.79,-134.78 100.8,-127.82 102.71,-138.24 108.79,-134.78"/>
<text text-anchor="middle" x="129" y="-154" font-family="Times,serif" font-size="14.00">有</text>
</g>
<!-- 2 -->
<g id="node3" class="node">
<title>2</title>
<polygon fill="none" stroke="black" points="238,-127.6 152,-127.6 152,-91.6 238,-91.6 238,-127.6"/>
<text text-anchor="middle" x="195" y="-108.2" font-family="Times,serif" font-size="14.00">有没有鳍？</text>
</g>
<!-- 0&#45;&gt;2 -->
<g id="edge2" class="edge">
<title>0&#45;&gt;2</title>
<path fill="none" stroke="black" d="M152.22,-182.92C159.99,-169.78 170.81,-151.49 179.63,-136.59"/>
<polygon fill="black" stroke="black" points="182.73,-138.21 184.81,-127.82 176.71,-134.65 182.73,-138.21"/>
<text text-anchor="middle" x="187" y="-154" font-family="Times,serif" font-size="14.00">没有</text>
</g>
<!-- 3 -->
<g id="node4" class="node">
<title>3</title>
<polygon fill="none" stroke="black" points="54,-36 0,-36 0,0 54,0 54,-36"/>
<text text-anchor="middle" x="27" y="-16.6" font-family="Times,serif" font-size="14.00">鹰</text>
</g>
<!-- 1&#45;&gt;3 -->
<g id="edge3" class="edge">
<title>1&#45;&gt;3</title>
<path fill="none" stroke="black" d="M78.66,-91.32C69.19,-78.06 55.96,-59.54 45.26,-44.57"/>
<polygon fill="black" stroke="black" points="47.96,-42.33 39.3,-36.22 42.27,-46.39 47.96,-42.33"/>
<text text-anchor="middle" x="72" y="-62.4" font-family="Times,serif" font-size="14.00">会</text>
</g>
<!-- 4 -->
<g id="node5" class="node">
<title>4</title>
<polygon fill="none" stroke="black" points="126,-36 72,-36 72,0 126,0 126,-36"/>
<text text-anchor="middle" x="99" y="-16.6" font-family="Times,serif" font-size="14.00">企鹅</text>
</g>
<!-- 1&#45;&gt;4 -->
<g id="edge4" class="edge">
<title>1&#45;&gt;4</title>
<path fill="none" stroke="black" d="M92.54,-91.32C93.68,-78.56 95.26,-60.92 96.57,-46.26"/>
<polygon fill="black" stroke="black" points="100.06,-46.49 97.46,-36.22 93.09,-45.87 100.06,-46.49"/>
<text text-anchor="middle" x="110" y="-62.4" font-family="Times,serif" font-size="14.00">不会</text>
</g>
<!-- 5 -->
<g id="node6" class="node">
<title>5</title>
<polygon fill="none" stroke="black" points="206,-36 152,-36 152,0 206,0 206,-36"/>
<text text-anchor="middle" x="179" y="-16.6" font-family="Times,serif" font-size="14.00">海豚</text>
</g>
<!-- 2&#45;&gt;5 -->
<g id="edge5" class="edge">
<title>2&#45;&gt;5</title>
<path fill="none" stroke="black" d="M191.92,-91.32C189.64,-78.56 186.49,-60.92 183.87,-46.26"/>
<polygon fill="black" stroke="black" points="187.28,-45.45 182.08,-36.22 180.39,-46.68 187.28,-45.45"/>
<text text-anchor="middle" x="195" y="-62.4" font-family="Times,serif" font-size="14.00">有</text>
</g>
<!-- 6 -->
<g id="node7" class="node">
<title>6</title>
<polygon fill="none" stroke="black" points="278,-36 224,-36 224,0 278,0 278,-36"/>
<text text-anchor="middle" x="251" y="-16.6" font-family="Times,serif" font-size="14.00">熊</text>
</g>
<!-- 2&#45;&gt;6 -->
<g id="edge6" class="edge">
<title>2&#45;&gt;6</title>
<path fill="none" stroke="black" d="M205.8,-91.32C214.01,-78.19 225.44,-59.89 234.76,-44.99"/>
<polygon fill="black" stroke="black" points="237.9,-46.56 240.24,-36.22 231.97,-42.85 237.9,-46.56"/>
<text text-anchor="middle" x="242" y="-62.4" font-family="Times,serif" font-size="14.00">没有</text>
</g>
</g>
</svg>
