<?xml version="1.0" encoding="UTF-8" standalone="no"?>
<!DOCTYPE svg PUBLIC "-//W3C//DTD SVG 1.1//EN"
 "http://www.w3.org/Graphics/SVG/1.1/DTD/svg11.dtd">
<!-- Generated by graphviz version 2.43.0 (0)
 -->
<!-- Title: Tree Pages: 1 -->
<svg width="1031pt" height="458pt"
 viewBox="0.00 0.00 1031.15 458.00" xmlns="http://www.w3.org/2000/svg" xmlns:xlink="http://www.w3.org/1999/xlink">
<g id="graph0" class="graph" transform="scale(1 1) rotate(0) translate(4 454)">
<title>Tree</title>
<polygon fill="white" stroke="transparent" points="-4,4 -4,-454 1027.15,-454 1027.15,4 -4,4"/>
<!-- 0 -->
<g id="node1" class="node">
<title>0</title>
<polygon fill="#afd7f4" stroke="black" points="641.22,-450 494.99,-450 494.99,-386 641.22,-386 641.22,-450"/>
<text text-anchor="middle" x="568.11" y="-434.8" font-family="Times,serif" font-size="14.00">worst radius &lt;= 16.795</text>
<text text-anchor="middle" x="568.11" y="-420.8" font-family="Times,serif" font-size="14.00">samples = 426</text>
<text text-anchor="middle" x="568.11" y="-406.8" font-family="Times,serif" font-size="14.00">value = [159, 267]</text>
<text text-anchor="middle" x="568.11" y="-392.8" font-family="Times,serif" font-size="14.00">class = benign</text>
</g>
<!-- 1 -->
<g id="node2" class="node">
<title>1</title>
<polygon fill="#4ca6e8" stroke="black" points="551.59,-350 362.62,-350 362.62,-286 551.59,-286 551.59,-350"/>
<text text-anchor="middle" x="457.11" y="-334.8" font-family="Times,serif" font-size="14.00">worst concave points &lt;= 0.136</text>
<text text-anchor="middle" x="457.11" y="-320.8" font-family="Times,serif" font-size="14.00">samples = 284</text>
<text text-anchor="middle" x="457.11" y="-306.8" font-family="Times,serif" font-size="14.00">value = [25, 259]</text>
<text text-anchor="middle" x="457.11" y="-292.8" font-family="Times,serif" font-size="14.00">class = benign</text>
</g>
<!-- 0&#45;&gt;1 -->
<g id="edge1" class="edge">
<title>0&#45;&gt;1</title>
<path fill="none" stroke="black" d="M532.99,-385.99C522.56,-376.79 511.02,-366.6 500.15,-357"/>
<polygon fill="black" stroke="black" points="502.19,-354.14 492.38,-350.14 497.56,-359.38 502.19,-354.14"/>
<text text-anchor="middle" x="493.93" y="-370.89" font-family="Times,serif" font-size="14.00">True</text>
</g>
<!-- 14 -->
<g id="node15" class="node">
<title>14</title>
<polygon fill="#e78945" stroke="black" points="719.97,-350 580.25,-350 580.25,-286 719.97,-286 719.97,-350"/>
<text text-anchor="middle" x="650.11" y="-334.8" font-family="Times,serif" font-size="14.00">texture error &lt;= 0.473</text>
<text text-anchor="middle" x="650.11" y="-320.8" font-family="Times,serif" font-size="14.00">samples = 142</text>
<text text-anchor="middle" x="650.11" y="-306.8" font-family="Times,serif" font-size="14.00">value = [134, 8]</text>
<text text-anchor="middle" x="650.11" y="-292.8" font-family="Times,serif" font-size="14.00">class = malignant</text>
</g>
<!-- 0&#45;&gt;14 -->
<g id="edge14" class="edge">
<title>0&#45;&gt;14</title>
<path fill="none" stroke="black" d="M594.05,-385.99C601.53,-377.06 609.78,-367.19 617.61,-357.84"/>
<polygon fill="black" stroke="black" points="620.32,-360.06 624.05,-350.14 614.95,-355.57 620.32,-360.06"/>
<text text-anchor="middle" x="626.26" y="-370.84" font-family="Times,serif" font-size="14.00">False</text>
</g>
<!-- 2 -->
<g id="node3" class="node">
<title>2</title>
<polygon fill="#3c9fe5" stroke="black" points="354.81,-250 219.4,-250 219.4,-186 354.81,-186 354.81,-250"/>
<text text-anchor="middle" x="287.11" y="-234.8" font-family="Times,serif" font-size="14.00">radius error &lt;= 1.048</text>
<text text-anchor="middle" x="287.11" y="-220.8" font-family="Times,serif" font-size="14.00">samples = 252</text>
<text text-anchor="middle" x="287.11" y="-206.8" font-family="Times,serif" font-size="14.00">value = [4, 248]</text>
<text text-anchor="middle" x="287.11" y="-192.8" font-family="Times,serif" font-size="14.00">class = benign</text>
</g>
<!-- 1&#45;&gt;2 -->
<g id="edge2" class="edge">
<title>1&#45;&gt;2</title>
<path fill="none" stroke="black" d="M403.32,-285.99C386.42,-276.25 367.61,-265.41 350.13,-255.33"/>
<polygon fill="black" stroke="black" points="351.54,-252.1 341.13,-250.14 348.04,-258.17 351.54,-252.1"/>
</g>
<!-- 7 -->
<g id="node8" class="node">
<title>7</title>
<polygon fill="#f3c3a1" stroke="black" points="528.88,-250 385.34,-250 385.34,-186 528.88,-186 528.88,-250"/>
<text text-anchor="middle" x="457.11" y="-234.8" font-family="Times,serif" font-size="14.00">worst texture &lt;= 25.62</text>
<text text-anchor="middle" x="457.11" y="-220.8" font-family="Times,serif" font-size="14.00">samples = 32</text>
<text text-anchor="middle" x="457.11" y="-206.8" font-family="Times,serif" font-size="14.00">value = [21, 11]</text>
<text text-anchor="middle" x="457.11" y="-192.8" font-family="Times,serif" font-size="14.00">class = malignant</text>
</g>
<!-- 1&#45;&gt;7 -->
<g id="edge7" class="edge">
<title>1&#45;&gt;7</title>
<path fill="none" stroke="black" d="M457.11,-285.99C457.11,-277.86 457.11,-268.96 457.11,-260.38"/>
<polygon fill="black" stroke="black" points="460.61,-260.14 457.11,-250.14 453.61,-260.14 460.61,-260.14"/>
</g>
<!-- 3 -->
<g id="node4" class="node">
<title>3</title>
<polygon fill="#3b9ee5" stroke="black" points="212.44,-150 45.78,-150 45.78,-86 212.44,-86 212.44,-150"/>
<text text-anchor="middle" x="129.11" y="-134.8" font-family="Times,serif" font-size="14.00">smoothness error &lt;= 0.003</text>
<text text-anchor="middle" x="129.11" y="-120.8" font-family="Times,serif" font-size="14.00">samples = 251</text>
<text text-anchor="middle" x="129.11" y="-106.8" font-family="Times,serif" font-size="14.00">value = [3, 248]</text>
<text text-anchor="middle" x="129.11" y="-92.8" font-family="Times,serif" font-size="14.00">class = benign</text>
</g>
<!-- 2&#45;&gt;3 -->
<g id="edge3" class="edge">
<title>2&#45;&gt;3</title>
<path fill="none" stroke="black" d="M237.11,-185.99C221.55,-176.34 204.25,-165.61 188.13,-155.61"/>
<polygon fill="black" stroke="black" points="189.66,-152.44 179.32,-150.14 185.97,-158.39 189.66,-152.44"/>
</g>
<!-- 6 -->
<g id="node7" class="node">
<title>6</title>
<polygon fill="#e58139" stroke="black" points="344.2,-143 230.01,-143 230.01,-93 344.2,-93 344.2,-143"/>
<text text-anchor="middle" x="287.11" y="-127.8" font-family="Times,serif" font-size="14.00">samples = 1</text>
<text text-anchor="middle" x="287.11" y="-113.8" font-family="Times,serif" font-size="14.00">value = [1, 0]</text>
<text text-anchor="middle" x="287.11" y="-99.8" font-family="Times,serif" font-size="14.00">class = malignant</text>
</g>
<!-- 2&#45;&gt;6 -->
<g id="edge6" class="edge">
<title>2&#45;&gt;6</title>
<path fill="none" stroke="black" d="M287.11,-185.99C287.11,-175.65 287.11,-164.06 287.11,-153.46"/>
<polygon fill="black" stroke="black" points="290.61,-153.29 287.11,-143.29 283.61,-153.29 290.61,-153.29"/>
</g>
<!-- 4 -->
<g id="node5" class="node">
<title>4</title>
<polygon fill="#7bbeee" stroke="black" points="96.32,-50 -0.11,-50 -0.11,0 96.32,0 96.32,-50"/>
<text text-anchor="middle" x="48.11" y="-34.8" font-family="Times,serif" font-size="14.00">samples = 4</text>
<text text-anchor="middle" x="48.11" y="-20.8" font-family="Times,serif" font-size="14.00">value = [1, 3]</text>
<text text-anchor="middle" x="48.11" y="-6.8" font-family="Times,serif" font-size="14.00">class = benign</text>
</g>
<!-- 3&#45;&gt;4 -->
<g id="edge4" class="edge">
<title>3&#45;&gt;4</title>
<path fill="none" stroke="black" d="M101.46,-85.94C93.29,-76.77 84.35,-66.72 76.16,-57.52"/>
<polygon fill="black" stroke="black" points="78.76,-55.17 69.5,-50.03 73.53,-59.83 78.76,-55.17"/>
</g>
<!-- 5 -->
<g id="node6" class="node">
<title>5</title>
<polygon fill="#3b9ee5" stroke="black" points="219.64,-50 114.57,-50 114.57,0 219.64,0 219.64,-50"/>
<text text-anchor="middle" x="167.11" y="-34.8" font-family="Times,serif" font-size="14.00">samples = 247</text>
<text text-anchor="middle" x="167.11" y="-20.8" font-family="Times,serif" font-size="14.00">value = [2, 245]</text>
<text text-anchor="middle" x="167.11" y="-6.8" font-family="Times,serif" font-size="14.00">class = benign</text>
</g>
<!-- 3&#45;&gt;5 -->
<g id="edge5" class="edge">
<title>3&#45;&gt;5</title>
<path fill="none" stroke="black" d="M142.08,-85.94C145.64,-77.41 149.52,-68.12 153.13,-59.47"/>
<polygon fill="black" stroke="black" points="156.45,-60.61 157.07,-50.03 149.99,-57.91 156.45,-60.61"/>
</g>
<!-- 8 -->
<g id="node9" class="node">
<title>8</title>
<polygon fill="#7bbeee" stroke="black" points="532.35,-150 361.87,-150 361.87,-86 532.35,-86 532.35,-150"/>
<text text-anchor="middle" x="447.11" y="-134.8" font-family="Times,serif" font-size="14.00">worst smoothness &lt;= 0.179</text>
<text text-anchor="middle" x="447.11" y="-120.8" font-family="Times,serif" font-size="14.00">samples = 12</text>
<text text-anchor="middle" x="447.11" y="-106.8" font-family="Times,serif" font-size="14.00">value = [3, 9]</text>
<text text-anchor="middle" x="447.11" y="-92.8" font-family="Times,serif" font-size="14.00">class = benign</text>
</g>
<!-- 7&#45;&gt;8 -->
<g id="edge8" class="edge">
<title>7&#45;&gt;8</title>
<path fill="none" stroke="black" d="M453.94,-185.99C453.1,-177.77 452.18,-168.76 451.3,-160.09"/>
<polygon fill="black" stroke="black" points="454.78,-159.74 450.28,-150.14 447.82,-160.45 454.78,-159.74"/>
</g>
<!-- 11 -->
<g id="node12" class="node">
<title>11</title>
<polygon fill="#e88f4f" stroke="black" points="711.5,-150 550.71,-150 550.71,-86 711.5,-86 711.5,-150"/>
<text text-anchor="middle" x="631.11" y="-134.8" font-family="Times,serif" font-size="14.00">worst symmetry &lt;= 0.268</text>
<text text-anchor="middle" x="631.11" y="-120.8" font-family="Times,serif" font-size="14.00">samples = 20</text>
<text text-anchor="middle" x="631.11" y="-106.8" font-family="Times,serif" font-size="14.00">value = [18, 2]</text>
<text text-anchor="middle" x="631.11" y="-92.8" font-family="Times,serif" font-size="14.00">class = malignant</text>
</g>
<!-- 7&#45;&gt;11 -->
<g id="edge11" class="edge">
<title>7&#45;&gt;11</title>
<path fill="none" stroke="black" d="M512.16,-185.99C529.62,-176.16 549.06,-165.21 567.09,-155.05"/>
<polygon fill="black" stroke="black" points="568.82,-158.1 575.81,-150.14 565.38,-152 568.82,-158.1"/>
</g>
<!-- 9 -->
<g id="node10" class="node">
<title>9</title>
<polygon fill="#4fa8e8" stroke="black" points="372.32,-50 275.89,-50 275.89,0 372.32,0 372.32,-50"/>
<text text-anchor="middle" x="324.11" y="-34.8" font-family="Times,serif" font-size="14.00">samples = 10</text>
<text text-anchor="middle" x="324.11" y="-20.8" font-family="Times,serif" font-size="14.00">value = [1, 9]</text>
<text text-anchor="middle" x="324.11" y="-6.8" font-family="Times,serif" font-size="14.00">class = benign</text>
</g>
<!-- 8&#45;&gt;9 -->
<g id="edge9" class="edge">
<title>8&#45;&gt;9</title>
<path fill="none" stroke="black" d="M405.12,-85.94C392.1,-76.31 377.79,-65.72 364.86,-56.15"/>
<polygon fill="black" stroke="black" points="366.71,-53.16 356.59,-50.03 362.54,-58.79 366.71,-53.16"/>
</g>
<!-- 10 -->
<g id="node11" class="node">
<title>10</title>
<polygon fill="#e58139" stroke="black" points="504.2,-50 390.01,-50 390.01,0 504.2,0 504.2,-50"/>
<text text-anchor="middle" x="447.11" y="-34.8" font-family="Times,serif" font-size="14.00">samples = 2</text>
<text text-anchor="middle" x="447.11" y="-20.8" font-family="Times,serif" font-size="14.00">value = [2, 0]</text>
<text text-anchor="middle" x="447.11" y="-6.8" font-family="Times,serif" font-size="14.00">class = malignant</text>
</g>
<!-- 8&#45;&gt;10 -->
<g id="edge10" class="edge">
<title>8&#45;&gt;10</title>
<path fill="none" stroke="black" d="M447.11,-85.94C447.11,-77.68 447.11,-68.72 447.11,-60.31"/>
<polygon fill="black" stroke="black" points="450.61,-60.03 447.11,-50.03 443.61,-60.03 450.61,-60.03"/>
</g>
<!-- 12 -->
<g id="node13" class="node">
<title>12</title>
<polygon fill="#9ccef2" stroke="black" points="618.32,-50 521.89,-50 521.89,0 618.32,0 618.32,-50"/>
<text text-anchor="middle" x="570.11" y="-34.8" font-family="Times,serif" font-size="14.00">samples = 3</text>
<text text-anchor="middle" x="570.11" y="-20.8" font-family="Times,serif" font-size="14.00">value = [1, 2]</text>
<text text-anchor="middle" x="570.11" y="-6.8" font-family="Times,serif" font-size="14.00">class = benign</text>
</g>
<!-- 11&#45;&gt;12 -->
<g id="edge12" class="edge">
<title>11&#45;&gt;12</title>
<path fill="none" stroke="black" d="M610.28,-85.94C604.32,-77.04 597.81,-67.32 591.79,-58.35"/>
<polygon fill="black" stroke="black" points="594.69,-56.39 586.21,-50.03 588.88,-60.29 594.69,-56.39"/>
</g>
<!-- 13 -->
<g id="node14" class="node">
<title>13</title>
<polygon fill="#e58139" stroke="black" points="750.2,-50 636.01,-50 636.01,0 750.2,0 750.2,-50"/>
<text text-anchor="middle" x="693.11" y="-34.8" font-family="Times,serif" font-size="14.00">samples = 17</text>
<text text-anchor="middle" x="693.11" y="-20.8" font-family="Times,serif" font-size="14.00">value = [17, 0]</text>
<text text-anchor="middle" x="693.11" y="-6.8" font-family="Times,serif" font-size="14.00">class = malignant</text>
</g>
<!-- 11&#45;&gt;13 -->
<g id="edge13" class="edge">
<title>11&#45;&gt;13</title>
<path fill="none" stroke="black" d="M652.27,-85.94C658.33,-77.04 664.95,-67.32 671.06,-58.35"/>
<polygon fill="black" stroke="black" points="674,-60.26 676.73,-50.03 668.21,-56.32 674,-60.26"/>
</g>
<!-- 15 -->
<g id="node16" class="node">
<title>15</title>
<polygon fill="#399de5" stroke="black" points="698.32,-243 601.89,-243 601.89,-193 698.32,-193 698.32,-243"/>
<text text-anchor="middle" x="650.11" y="-227.8" font-family="Times,serif" font-size="14.00">samples = 5</text>
<text text-anchor="middle" x="650.11" y="-213.8" font-family="Times,serif" font-size="14.00">value = [0, 5]</text>
<text text-anchor="middle" x="650.11" y="-199.8" font-family="Times,serif" font-size="14.00">class = benign</text>
</g>
<!-- 14&#45;&gt;15 -->
<g id="edge15" class="edge">
<title>14&#45;&gt;15</title>
<path fill="none" stroke="black" d="M650.11,-285.99C650.11,-275.65 650.11,-264.06 650.11,-253.46"/>
<polygon fill="black" stroke="black" points="653.61,-253.29 650.11,-243.29 646.61,-253.29 653.61,-253.29"/>
</g>
<!-- 16 -->
<g id="node17" class="node">
<title>16</title>
<polygon fill="#e6843d" stroke="black" points="895.93,-250 736.28,-250 736.28,-186 895.93,-186 895.93,-250"/>
<text text-anchor="middle" x="816.11" y="-234.8" font-family="Times,serif" font-size="14.00">worst concavity &lt;= 0.191</text>
<text text-anchor="middle" x="816.11" y="-220.8" font-family="Times,serif" font-size="14.00">samples = 137</text>
<text text-anchor="middle" x="816.11" y="-206.8" font-family="Times,serif" font-size="14.00">value = [134, 3]</text>
<text text-anchor="middle" x="816.11" y="-192.8" font-family="Times,serif" font-size="14.00">class = malignant</text>
</g>
<!-- 14&#45;&gt;16 -->
<g id="edge16" class="edge">
<title>14&#45;&gt;16</title>
<path fill="none" stroke="black" d="M702.63,-285.99C719.13,-276.25 737.5,-265.41 754.57,-255.33"/>
<polygon fill="black" stroke="black" points="756.52,-258.24 763.35,-250.14 752.96,-252.21 756.52,-258.24"/>
</g>
<!-- 17 -->
<g id="node18" class="node">
<title>17</title>
<polygon fill="#bddef6" stroke="black" points="891.38,-150 740.84,-150 740.84,-86 891.38,-86 891.38,-150"/>
<text text-anchor="middle" x="816.11" y="-134.8" font-family="Times,serif" font-size="14.00">worst texture &lt;= 30.975</text>
<text text-anchor="middle" x="816.11" y="-120.8" font-family="Times,serif" font-size="14.00">samples = 5</text>
<text text-anchor="middle" x="816.11" y="-106.8" font-family="Times,serif" font-size="14.00">value = [2, 3]</text>
<text text-anchor="middle" x="816.11" y="-92.8" font-family="Times,serif" font-size="14.00">class = benign</text>
</g>
<!-- 16&#45;&gt;17 -->
<g id="edge17" class="edge">
<title>16&#45;&gt;17</title>
<path fill="none" stroke="black" d="M816.11,-185.99C816.11,-177.86 816.11,-168.96 816.11,-160.38"/>
<polygon fill="black" stroke="black" points="819.61,-160.14 816.11,-150.14 812.61,-160.14 819.61,-160.14"/>
</g>
<!-- 20 -->
<g id="node21" class="node">
<title>20</title>
<polygon fill="#e58139" stroke="black" points="1023.2,-143 909.01,-143 909.01,-93 1023.2,-93 1023.2,-143"/>
<text text-anchor="middle" x="966.11" y="-127.8" font-family="Times,serif" font-size="14.00">samples = 132</text>
<text text-anchor="middle" x="966.11" y="-113.8" font-family="Times,serif" font-size="14.00">value = [132, 0]</text>
<text text-anchor="middle" x="966.11" y="-99.8" font-family="Times,serif" font-size="14.00">class = malignant</text>
</g>
<!-- 16&#45;&gt;20 -->
<g id="edge20" class="edge">
<title>16&#45;&gt;20</title>
<path fill="none" stroke="black" d="M863.57,-185.99C881.71,-174.14 902.36,-160.65 920.34,-148.9"/>
<polygon fill="black" stroke="black" points="922.47,-151.69 928.93,-143.29 918.65,-145.83 922.47,-151.69"/>
</g>
<!-- 18 -->
<g id="node19" class="node">
<title>18</title>
<polygon fill="#399de5" stroke="black" points="864.32,-50 767.89,-50 767.89,0 864.32,0 864.32,-50"/>
<text text-anchor="middle" x="816.11" y="-34.8" font-family="Times,serif" font-size="14.00">samples = 3</text>
<text text-anchor="middle" x="816.11" y="-20.8" font-family="Times,serif" font-size="14.00">value = [0, 3]</text>
<text text-anchor="middle" x="816.11" y="-6.8" font-family="Times,serif" font-size="14.00">class = benign</text>
</g>
<!-- 17&#45;&gt;18 -->
<g id="edge18" class="edge">
<title>17&#45;&gt;18</title>
<path fill="none" stroke="black" d="M816.11,-85.94C816.11,-77.68 816.11,-68.72 816.11,-60.31"/>
<polygon fill="black" stroke="black" points="819.61,-60.03 816.11,-50.03 812.61,-60.03 819.61,-60.03"/>
</g>
<!-- 19 -->
<g id="node20" class="node">
<title>19</title>
<polygon fill="#e58139" stroke="black" points="996.2,-50 882.01,-50 882.01,0 996.2,0 996.2,-50"/>
<text text-anchor="middle" x="939.11" y="-34.8" font-family="Times,serif" font-size="14.00">samples = 2</text>
<text text-anchor="middle" x="939.11" y="-20.8" font-family="Times,serif" font-size="14.00">value = [2, 0]</text>
<text text-anchor="middle" x="939.11" y="-6.8" font-family="Times,serif" font-size="14.00">class = malignant</text>
</g>
<!-- 17&#45;&gt;19 -->
<g id="edge19" class="edge">
<title>17&#45;&gt;19</title>
<path fill="none" stroke="black" d="M858.09,-85.94C871.11,-76.31 885.43,-65.72 898.36,-56.15"/>
<polygon fill="black" stroke="black" points="900.67,-58.79 906.63,-50.03 896.51,-53.16 900.67,-58.79"/>
</g>
</g>
</svg>
