<?xml version="1.0" encoding="UTF-8" standalone="no"?>
<!DOCTYPE svg PUBLIC "-//W3C//DTD SVG 1.1//EN"
 "http://www.w3.org/Graphics/SVG/1.1/DTD/svg11.dtd">
<!-- Generated by graphviz version 2.43.0 (0)
 -->
<!-- Title: %3 Pages: 1 -->
<svg width="380pt" height="260pt"
 viewBox="0.00 0.00 380.00 260.00" xmlns="http://www.w3.org/2000/svg" xmlns:xlink="http://www.w3.org/1999/xlink">
<g id="graph0" class="graph" transform="scale(1 1) rotate(0) translate(4 256)">
<title>%3</title>
<polygon fill="white" stroke="transparent" points="-4,4 -4,-256 376,-256 376,4 -4,4"/>
<g id="clust1" class="cluster">
<title>cluster_0</title>
<polygon fill="none" stroke="white" points="8,-8 8,-244 60,-244 60,-8 8,-8"/>
<text text-anchor="middle" x="34" y="-228.8" font-family="Times,serif" font-size="14.00">inputs</text>
</g>
<g id="clust2" class="cluster">
<title>cluster_1</title>
<polygon fill="none" stroke="white" points="80,-35 80,-217 176,-217 176,-35 80,-35"/>
<text text-anchor="middle" x="128" y="-201.8" font-family="Times,serif" font-size="14.00">hidden layer 1</text>
</g>
<g id="clust3" class="cluster">
<title>cluster_2</title>
<polygon fill="none" stroke="white" points="196,-35 196,-217 292,-217 292,-35 196,-35"/>
<text text-anchor="middle" x="244" y="-201.8" font-family="Times,serif" font-size="14.00">hidden layer 2</text>
</g>
<g id="clust4" class="cluster">
<title>cluster_3</title>
<polygon fill="none" stroke="white" points="312,-89 312,-163 364,-163 364,-89 312,-89"/>
<text text-anchor="middle" x="338" y="-147.8" font-family="Times,serif" font-size="14.00">output</text>
</g>
<!-- x[0] -->
<g id="node1" class="node">
<title>x[0]</title>
<ellipse fill="none" stroke="black" cx="34" cy="-196" rx="18" ry="18"/>
<text text-anchor="middle" x="34" y="-191.8" font-family="Times,serif" font-size="14.00">x[0]</text>
</g>
<!-- h1[0] -->
<g id="node5" class="node">
<title>h1[0]</title>
<ellipse fill="none" stroke="black" cx="128" cy="-61" rx="18" ry="18"/>
<text text-anchor="middle" x="128" y="-56.8" font-family="Times,serif" font-size="14.00">h1[0]</text>
</g>
<!-- x[0]&#45;&gt;h1[0] -->
<g id="edge1" class="edge">
<title>x[0]&#45;&gt;h1[0]</title>
<path fill="none" stroke="black" d="M44.85,-181.55C60.74,-158.23 92.19,-112.08 111.24,-84.13"/>
<polygon fill="black" stroke="black" points="114.21,-85.99 116.95,-75.75 108.42,-82.05 114.21,-85.99"/>
</g>
<!-- h1[1] -->
<g id="node6" class="node">
<title>h1[1]</title>
<ellipse fill="none" stroke="black" cx="128" cy="-169" rx="18" ry="18"/>
<text text-anchor="middle" x="128" y="-164.8" font-family="Times,serif" font-size="14.00">h1[1]</text>
</g>
<!-- x[0]&#45;&gt;h1[1] -->
<g id="edge2" class="edge">
<title>x[0]&#45;&gt;h1[1]</title>
<path fill="none" stroke="black" d="M51.45,-191.17C65.1,-187.17 84.77,-181.39 100.62,-176.74"/>
<polygon fill="black" stroke="black" points="101.77,-180.05 110.38,-173.88 99.8,-173.33 101.77,-180.05"/>
</g>
<!-- h1[2] -->
<g id="node7" class="node">
<title>h1[2]</title>
<ellipse fill="none" stroke="black" cx="128" cy="-115" rx="18" ry="18"/>
<text text-anchor="middle" x="128" y="-110.8" font-family="Times,serif" font-size="14.00">h1[2]</text>
</g>
<!-- x[0]&#45;&gt;h1[2] -->
<g id="edge3" class="edge">
<title>x[0]&#45;&gt;h1[2]</title>
<path fill="none" stroke="black" d="M48.18,-184.39C63.35,-171.04 88.45,-148.94 106.24,-133.28"/>
<polygon fill="black" stroke="black" points="108.65,-135.82 113.84,-126.58 104.02,-130.57 108.65,-135.82"/>
</g>
<!-- x[1] -->
<g id="node2" class="node">
<title>x[1]</title>
<ellipse fill="none" stroke="black" cx="34" cy="-142" rx="18" ry="18"/>
<text text-anchor="middle" x="34" y="-137.8" font-family="Times,serif" font-size="14.00">x[1]</text>
</g>
<!-- x[1]&#45;&gt;h1[0] -->
<g id="edge4" class="edge">
<title>x[1]&#45;&gt;h1[0]</title>
<path fill="none" stroke="black" d="M48.18,-130.39C63.35,-117.04 88.45,-94.94 106.24,-79.28"/>
<polygon fill="black" stroke="black" points="108.65,-81.82 113.84,-72.58 104.02,-76.57 108.65,-81.82"/>
</g>
<!-- x[1]&#45;&gt;h1[1] -->
<g id="edge5" class="edge">
<title>x[1]&#45;&gt;h1[1]</title>
<path fill="none" stroke="black" d="M51.45,-146.83C65.1,-150.83 84.77,-156.61 100.62,-161.26"/>
<polygon fill="black" stroke="black" points="99.8,-164.67 110.38,-164.12 101.77,-157.95 99.8,-164.67"/>
</g>
<!-- x[1]&#45;&gt;h1[2] -->
<g id="edge6" class="edge">
<title>x[1]&#45;&gt;h1[2]</title>
<path fill="none" stroke="black" d="M51.45,-137.17C65.1,-133.17 84.77,-127.39 100.62,-122.74"/>
<polygon fill="black" stroke="black" points="101.77,-126.05 110.38,-119.88 99.8,-119.33 101.77,-126.05"/>
</g>
<!-- x[2] -->
<g id="node3" class="node">
<title>x[2]</title>
<ellipse fill="none" stroke="black" cx="34" cy="-88" rx="18" ry="18"/>
<text text-anchor="middle" x="34" y="-83.8" font-family="Times,serif" font-size="14.00">x[2]</text>
</g>
<!-- x[2]&#45;&gt;h1[0] -->
<g id="edge7" class="edge">
<title>x[2]&#45;&gt;h1[0]</title>
<path fill="none" stroke="black" d="M51.45,-83.17C65.1,-79.17 84.77,-73.39 100.62,-68.74"/>
<polygon fill="black" stroke="black" points="101.77,-72.05 110.38,-65.88 99.8,-65.33 101.77,-72.05"/>
</g>
<!-- x[2]&#45;&gt;h1[1] -->
<g id="edge8" class="edge">
<title>x[2]&#45;&gt;h1[1]</title>
<path fill="none" stroke="black" d="M48.18,-99.61C63.35,-112.96 88.45,-135.06 106.24,-150.72"/>
<polygon fill="black" stroke="black" points="104.02,-153.43 113.84,-157.42 108.65,-148.18 104.02,-153.43"/>
</g>
<!-- x[2]&#45;&gt;h1[2] -->
<g id="edge9" class="edge">
<title>x[2]&#45;&gt;h1[2]</title>
<path fill="none" stroke="black" d="M51.45,-92.83C65.1,-96.83 84.77,-102.61 100.62,-107.26"/>
<polygon fill="black" stroke="black" points="99.8,-110.67 110.38,-110.12 101.77,-103.95 99.8,-110.67"/>
</g>
<!-- x[3] -->
<g id="node4" class="node">
<title>x[3]</title>
<ellipse fill="none" stroke="black" cx="34" cy="-34" rx="18" ry="18"/>
<text text-anchor="middle" x="34" y="-29.8" font-family="Times,serif" font-size="14.00">x[3]</text>
</g>
<!-- x[3]&#45;&gt;h1[0] -->
<g id="edge10" class="edge">
<title>x[3]&#45;&gt;h1[0]</title>
<path fill="none" stroke="black" d="M51.45,-38.83C65.1,-42.83 84.77,-48.61 100.62,-53.26"/>
<polygon fill="black" stroke="black" points="99.8,-56.67 110.38,-56.12 101.77,-49.95 99.8,-56.67"/>
</g>
<!-- x[3]&#45;&gt;h1[1] -->
<g id="edge11" class="edge">
<title>x[3]&#45;&gt;h1[1]</title>
<path fill="none" stroke="black" d="M44.85,-48.45C60.74,-71.77 92.19,-117.92 111.24,-145.87"/>
<polygon fill="black" stroke="black" points="108.42,-147.95 116.95,-154.25 114.21,-144.01 108.42,-147.95"/>
</g>
<!-- x[3]&#45;&gt;h1[2] -->
<g id="edge12" class="edge">
<title>x[3]&#45;&gt;h1[2]</title>
<path fill="none" stroke="black" d="M48.18,-45.61C63.35,-58.96 88.45,-81.06 106.24,-96.72"/>
<polygon fill="black" stroke="black" points="104.02,-99.43 113.84,-103.42 108.65,-94.18 104.02,-99.43"/>
</g>
<!-- h2[0] -->
<g id="node8" class="node">
<title>h2[0]</title>
<ellipse fill="none" stroke="black" cx="244" cy="-61" rx="18" ry="18"/>
<text text-anchor="middle" x="244" y="-56.8" font-family="Times,serif" font-size="14.00">h2[0]</text>
</g>
<!-- h1[0]&#45;&gt;h2[0] -->
<g id="edge13" class="edge">
<title>h1[0]&#45;&gt;h2[0]</title>
<path fill="none" stroke="black" d="M146.31,-61C164.75,-61 194.18,-61 215.74,-61"/>
<polygon fill="black" stroke="black" points="215.9,-64.5 225.9,-61 215.9,-57.5 215.9,-64.5"/>
</g>
<!-- h2[1] -->
<g id="node9" class="node">
<title>h2[1]</title>
<ellipse fill="none" stroke="black" cx="244" cy="-169" rx="18" ry="18"/>
<text text-anchor="middle" x="244" y="-164.8" font-family="Times,serif" font-size="14.00">h2[1]</text>
</g>
<!-- h1[0]&#45;&gt;h2[1] -->
<g id="edge14" class="edge">
<title>h1[0]&#45;&gt;h2[1]</title>
<path fill="none" stroke="black" d="M141.64,-72.97C161.32,-91.62 199.49,-127.78 222.96,-150.01"/>
<polygon fill="black" stroke="black" points="220.64,-152.64 230.31,-156.98 225.46,-147.56 220.64,-152.64"/>
</g>
<!-- h2[2] -->
<g id="node10" class="node">
<title>h2[2]</title>
<ellipse fill="none" stroke="black" cx="244" cy="-115" rx="18" ry="18"/>
<text text-anchor="middle" x="244" y="-110.8" font-family="Times,serif" font-size="14.00">h2[2]</text>
</g>
<!-- h1[0]&#45;&gt;h2[2] -->
<g id="edge15" class="edge">
<title>h1[0]&#45;&gt;h2[2]</title>
<path fill="none" stroke="black" d="M144.85,-68.51C163.82,-77.5 195.82,-92.65 218.1,-103.21"/>
<polygon fill="black" stroke="black" points="216.75,-106.44 227.28,-107.56 219.74,-100.11 216.75,-106.44"/>
</g>
<!-- h1[1]&#45;&gt;h2[0] -->
<g id="edge16" class="edge">
<title>h1[1]&#45;&gt;h2[0]</title>
<path fill="none" stroke="black" d="M141.64,-157.03C161.32,-138.38 199.49,-102.22 222.96,-79.99"/>
<polygon fill="black" stroke="black" points="225.46,-82.44 230.31,-73.02 220.64,-77.36 225.46,-82.44"/>
</g>
<!-- h1[1]&#45;&gt;h2[1] -->
<g id="edge17" class="edge">
<title>h1[1]&#45;&gt;h2[1]</title>
<path fill="none" stroke="black" d="M146.31,-169C164.75,-169 194.18,-169 215.74,-169"/>
<polygon fill="black" stroke="black" points="215.9,-172.5 225.9,-169 215.9,-165.5 215.9,-172.5"/>
</g>
<!-- h1[1]&#45;&gt;h2[2] -->
<g id="edge18" class="edge">
<title>h1[1]&#45;&gt;h2[2]</title>
<path fill="none" stroke="black" d="M144.85,-161.49C163.82,-152.5 195.82,-137.35 218.1,-126.79"/>
<polygon fill="black" stroke="black" points="219.74,-129.89 227.28,-122.44 216.75,-123.56 219.74,-129.89"/>
</g>
<!-- h1[2]&#45;&gt;h2[0] -->
<g id="edge19" class="edge">
<title>h1[2]&#45;&gt;h2[0]</title>
<path fill="none" stroke="black" d="M144.85,-107.49C163.82,-98.5 195.82,-83.35 218.1,-72.79"/>
<polygon fill="black" stroke="black" points="219.74,-75.89 227.28,-68.44 216.75,-69.56 219.74,-75.89"/>
</g>
<!-- h1[2]&#45;&gt;h2[1] -->
<g id="edge20" class="edge">
<title>h1[2]&#45;&gt;h2[1]</title>
<path fill="none" stroke="black" d="M144.85,-122.51C163.82,-131.5 195.82,-146.65 218.1,-157.21"/>
<polygon fill="black" stroke="black" points="216.75,-160.44 227.28,-161.56 219.74,-154.11 216.75,-160.44"/>
</g>
<!-- h1[2]&#45;&gt;h2[2] -->
<g id="edge21" class="edge">
<title>h1[2]&#45;&gt;h2[2]</title>
<path fill="none" stroke="black" d="M146.31,-115C164.75,-115 194.18,-115 215.74,-115"/>
<polygon fill="black" stroke="black" points="215.9,-118.5 225.9,-115 215.9,-111.5 215.9,-118.5"/>
</g>
<!-- y -->
<g id="node11" class="node">
<title>y</title>
<ellipse fill="none" stroke="black" cx="338" cy="-115" rx="18" ry="18"/>
<text text-anchor="middle" x="338" y="-110.8" font-family="Times,serif" font-size="14.00">y</text>
</g>
<!-- h2[0]&#45;&gt;y -->
<g id="edge22" class="edge">
<title>h2[0]&#45;&gt;y</title>
<path fill="none" stroke="black" d="M259.78,-69.68C274.18,-78.13 296.31,-91.12 313.19,-101.03"/>
<polygon fill="black" stroke="black" points="311.55,-104.12 321.95,-106.17 315.1,-98.09 311.55,-104.12"/>
</g>
<!-- h2[1]&#45;&gt;y -->
<g id="edge23" class="edge">
<title>h2[1]&#45;&gt;y</title>
<path fill="none" stroke="black" d="M259.78,-160.32C274.18,-151.87 296.31,-138.88 313.19,-128.97"/>
<polygon fill="black" stroke="black" points="315.1,-131.91 321.95,-123.83 311.55,-125.88 315.1,-131.91"/>
</g>
<!-- h2[2]&#45;&gt;y -->
<g id="edge24" class="edge">
<title>h2[2]&#45;&gt;y</title>
<path fill="none" stroke="black" d="M262.3,-115C275.54,-115 294.05,-115 309.34,-115"/>
<polygon fill="black" stroke="black" points="309.77,-118.5 319.77,-115 309.77,-111.5 309.77,-118.5"/>
</g>
</g>
</svg>
