<?xml version="1.0" encoding="UTF-8" standalone="no"?>
<!DOCTYPE svg PUBLIC "-//W3C//DTD SVG 1.1//EN"
 "http://www.w3.org/Graphics/SVG/1.1/DTD/svg11.dtd">
<!-- Generated by graphviz version 2.43.0 (0)
 -->
<!-- Title: %3 Pages: 1 -->
<svg width="253pt" height="260pt"
 viewBox="0.00 0.00 253.00 260.00" xmlns="http://www.w3.org/2000/svg" xmlns:xlink="http://www.w3.org/1999/xlink">
<g id="graph0" class="graph" transform="scale(1 1) rotate(0) translate(4 256)">
<title>%3</title>
<polygon fill="white" stroke="transparent" points="-4,4 -4,-256 249,-256 249,4 -4,4"/>
<g id="clust1" class="cluster">
<title>cluster_0</title>
<polygon fill="none" stroke="white" points="8,-8 8,-244 60,-244 60,-8 8,-8"/>
<text text-anchor="middle" x="34" y="-228.8" font-family="Times,serif" font-size="14.00">inputs</text>
</g>
<g id="clust2" class="cluster">
<title>cluster_1</title>
<polygon fill="none" stroke="white" points="80,-35 80,-217 165,-217 165,-35 80,-35"/>
<text text-anchor="middle" x="122.5" y="-201.8" font-family="Times,serif" font-size="14.00">hidden layer</text>
</g>
<g id="clust3" class="cluster">
<title>cluster_2</title>
<polygon fill="none" stroke="white" points="185,-89 185,-163 237,-163 237,-89 185,-89"/>
<text text-anchor="middle" x="211" y="-147.8" font-family="Times,serif" font-size="14.00">output</text>
</g>
<!-- x[0] -->
<g id="node1" class="node">
<title>x[0]</title>
<ellipse fill="none" stroke="black" cx="34" cy="-196" rx="18" ry="18"/>
<text text-anchor="middle" x="34" y="-191.8" font-family="Times,serif" font-size="14.00">x[0]</text>
</g>
<!-- h0 -->
<g id="node5" class="node">
<title>h0</title>
<ellipse fill="none" stroke="black" cx="122" cy="-61" rx="18" ry="18"/>
<text text-anchor="middle" x="122" y="-56.8" font-family="Times,serif" font-size="14.00">h[0]</text>
</g>
<!-- x[0]&#45;&gt;h0 -->
<g id="edge1" class="edge">
<title>x[0]&#45;&gt;h0</title>
<path fill="none" stroke="black" d="M44.53,-181.04C59.38,-157.72 88.18,-112.52 105.88,-84.73"/>
<polygon fill="black" stroke="black" points="109,-86.34 111.43,-76.03 103.1,-82.58 109,-86.34"/>
</g>
<!-- h1 -->
<g id="node6" class="node">
<title>h1</title>
<ellipse fill="none" stroke="black" cx="122" cy="-169" rx="18" ry="18"/>
<text text-anchor="middle" x="122" y="-164.8" font-family="Times,serif" font-size="14.00">h[1]</text>
</g>
<!-- x[0]&#45;&gt;h1 -->
<g id="edge2" class="edge">
<title>x[0]&#45;&gt;h1</title>
<path fill="none" stroke="black" d="M51.58,-190.79C63.84,-186.95 80.76,-181.63 94.84,-177.21"/>
<polygon fill="black" stroke="black" points="95.98,-180.52 104.47,-174.19 93.88,-173.85 95.98,-180.52"/>
</g>
<!-- h2 -->
<g id="node7" class="node">
<title>h2</title>
<ellipse fill="none" stroke="black" cx="122" cy="-115" rx="18" ry="18"/>
<text text-anchor="middle" x="122" y="-110.8" font-family="Times,serif" font-size="14.00">h[2]</text>
</g>
<!-- x[0]&#45;&gt;h2 -->
<g id="edge3" class="edge">
<title>x[0]&#45;&gt;h2</title>
<path fill="none" stroke="black" d="M47.69,-184.05C61.66,-170.89 84.32,-149.54 100.76,-134.07"/>
<polygon fill="black" stroke="black" points="103.38,-136.41 108.26,-127 98.58,-131.31 103.38,-136.41"/>
</g>
<!-- x[1] -->
<g id="node2" class="node">
<title>x[1]</title>
<ellipse fill="none" stroke="black" cx="34" cy="-142" rx="18" ry="18"/>
<text text-anchor="middle" x="34" y="-137.8" font-family="Times,serif" font-size="14.00">x[1]</text>
</g>
<!-- x[1]&#45;&gt;h0 -->
<g id="edge4" class="edge">
<title>x[1]&#45;&gt;h0</title>
<path fill="none" stroke="black" d="M47.69,-130.05C61.66,-116.89 84.32,-95.54 100.76,-80.07"/>
<polygon fill="black" stroke="black" points="103.38,-82.41 108.26,-73 98.58,-77.31 103.38,-82.41"/>
</g>
<!-- x[1]&#45;&gt;h1 -->
<g id="edge5" class="edge">
<title>x[1]&#45;&gt;h1</title>
<path fill="none" stroke="black" d="M51.58,-147.21C63.84,-151.05 80.76,-156.37 94.84,-160.79"/>
<polygon fill="black" stroke="black" points="93.88,-164.15 104.47,-163.81 95.98,-157.48 93.88,-164.15"/>
</g>
<!-- x[1]&#45;&gt;h2 -->
<g id="edge6" class="edge">
<title>x[1]&#45;&gt;h2</title>
<path fill="none" stroke="black" d="M51.58,-136.79C63.84,-132.95 80.76,-127.63 94.84,-123.21"/>
<polygon fill="black" stroke="black" points="95.98,-126.52 104.47,-120.19 93.88,-119.85 95.98,-126.52"/>
</g>
<!-- x[2] -->
<g id="node3" class="node">
<title>x[2]</title>
<ellipse fill="none" stroke="black" cx="34" cy="-88" rx="18" ry="18"/>
<text text-anchor="middle" x="34" y="-83.8" font-family="Times,serif" font-size="14.00">x[2]</text>
</g>
<!-- x[2]&#45;&gt;h0 -->
<g id="edge7" class="edge">
<title>x[2]&#45;&gt;h0</title>
<path fill="none" stroke="black" d="M51.58,-82.79C63.84,-78.95 80.76,-73.63 94.84,-69.21"/>
<polygon fill="black" stroke="black" points="95.98,-72.52 104.47,-66.19 93.88,-65.85 95.98,-72.52"/>
</g>
<!-- x[2]&#45;&gt;h1 -->
<g id="edge8" class="edge">
<title>x[2]&#45;&gt;h1</title>
<path fill="none" stroke="black" d="M47.69,-99.95C61.66,-113.11 84.32,-134.46 100.76,-149.93"/>
<polygon fill="black" stroke="black" points="98.58,-152.69 108.26,-157 103.38,-147.59 98.58,-152.69"/>
</g>
<!-- x[2]&#45;&gt;h2 -->
<g id="edge9" class="edge">
<title>x[2]&#45;&gt;h2</title>
<path fill="none" stroke="black" d="M51.58,-93.21C63.84,-97.05 80.76,-102.37 94.84,-106.79"/>
<polygon fill="black" stroke="black" points="93.88,-110.15 104.47,-109.81 95.98,-103.48 93.88,-110.15"/>
</g>
<!-- x[3] -->
<g id="node4" class="node">
<title>x[3]</title>
<ellipse fill="none" stroke="black" cx="34" cy="-34" rx="18" ry="18"/>
<text text-anchor="middle" x="34" y="-29.8" font-family="Times,serif" font-size="14.00">x[3]</text>
</g>
<!-- x[3]&#45;&gt;h0 -->
<g id="edge10" class="edge">
<title>x[3]&#45;&gt;h0</title>
<path fill="none" stroke="black" d="M51.58,-39.21C63.84,-43.05 80.76,-48.37 94.84,-52.79"/>
<polygon fill="black" stroke="black" points="93.88,-56.15 104.47,-55.81 95.98,-49.48 93.88,-56.15"/>
</g>
<!-- x[3]&#45;&gt;h1 -->
<g id="edge11" class="edge">
<title>x[3]&#45;&gt;h1</title>
<path fill="none" stroke="black" d="M44.53,-48.96C59.38,-72.28 88.18,-117.48 105.88,-145.27"/>
<polygon fill="black" stroke="black" points="103.1,-147.42 111.43,-153.97 109,-143.66 103.1,-147.42"/>
</g>
<!-- x[3]&#45;&gt;h2 -->
<g id="edge12" class="edge">
<title>x[3]&#45;&gt;h2</title>
<path fill="none" stroke="black" d="M47.69,-45.95C61.66,-59.11 84.32,-80.46 100.76,-95.93"/>
<polygon fill="black" stroke="black" points="98.58,-98.69 108.26,-103 103.38,-93.59 98.58,-98.69"/>
</g>
<!-- y -->
<g id="node8" class="node">
<title>y</title>
<ellipse fill="none" stroke="black" cx="211" cy="-115" rx="18" ry="18"/>
<text text-anchor="middle" x="211" y="-110.8" font-family="Times,serif" font-size="14.00">y</text>
</g>
<!-- h0&#45;&gt;y -->
<g id="edge13" class="edge">
<title>h0&#45;&gt;y</title>
<path fill="none" stroke="black" d="M137.76,-70.16C151.13,-78.46 171.07,-90.83 186.61,-100.48"/>
<polygon fill="black" stroke="black" points="184.83,-103.49 195.17,-105.79 188.52,-97.55 184.83,-103.49"/>
</g>
<!-- h1&#45;&gt;y -->
<g id="edge14" class="edge">
<title>h1&#45;&gt;y</title>
<path fill="none" stroke="black" d="M137.76,-159.84C151.13,-151.54 171.07,-139.17 186.61,-129.52"/>
<polygon fill="black" stroke="black" points="188.52,-132.45 195.17,-124.21 184.83,-126.51 188.52,-132.45"/>
</g>
<!-- h2&#45;&gt;y -->
<g id="edge15" class="edge">
<title>h2&#45;&gt;y</title>
<path fill="none" stroke="black" d="M140.19,-115C152.34,-115 168.89,-115 182.82,-115"/>
<polygon fill="black" stroke="black" points="182.85,-118.5 192.85,-115 182.85,-111.5 182.85,-118.5"/>
</g>
</g>
</svg>
