<?xml version="1.0" encoding="UTF-8" standalone="no"?>
<!DOCTYPE svg PUBLIC "-//W3C//DTD SVG 1.1//EN"
 "http://www.w3.org/Graphics/SVG/1.1/DTD/svg11.dtd">
<!-- Generated by graphviz version 2.43.0 (0)
 -->
<!-- Title: %3 Pages: 1 -->
<svg width="174pt" height="260pt"
 viewBox="0.00 0.00 174.43 260.00" xmlns="http://www.w3.org/2000/svg" xmlns:xlink="http://www.w3.org/1999/xlink">
<g id="graph0" class="graph" transform="scale(1 1) rotate(0) translate(4 256)">
<title>%3</title>
<polygon fill="white" stroke="transparent" points="-4,4 -4,-256 170.43,-256 170.43,4 -4,4"/>
<g id="clust1" class="cluster">
<title>cluster_0</title>
<polygon fill="none" stroke="white" points="8,-8 8,-244 60,-244 60,-8 8,-8"/>
<text text-anchor="middle" x="34" y="-228.8" font-family="Times,serif" font-size="14.00">inputs</text>
</g>
<g id="clust2" class="cluster">
<title>cluster_2</title>
<polygon fill="none" stroke="white" points="106.43,-88 106.43,-162 158.43,-162 158.43,-88 106.43,-88"/>
<text text-anchor="middle" x="132.43" y="-146.8" font-family="Times,serif" font-size="14.00">output</text>
</g>
<!-- x[0] -->
<g id="node1" class="node">
<title>x[0]</title>
<ellipse fill="none" stroke="black" cx="34" cy="-196" rx="18" ry="18"/>
<text text-anchor="middle" x="34" y="-191.8" font-family="Times,serif" font-size="14.00">x[0]</text>
</g>
<!-- y -->
<g id="node5" class="node">
<title>y</title>
<ellipse fill="none" stroke="black" cx="132.43" cy="-114" rx="18" ry="18"/>
<text text-anchor="middle" x="132.43" y="-109.8" font-family="Times,serif" font-size="14.00">y</text>
</g>
<!-- x[0]&#45;&gt;y -->
<g id="edge1" class="edge">
<title>x[0]&#45;&gt;y</title>
<path fill="none" stroke="black" d="M48.41,-184.6C64.46,-170.95 91.52,-147.94 110.37,-131.91"/>
<polygon fill="black" stroke="black" points="112.79,-134.45 118.14,-125.3 108.25,-129.12 112.79,-134.45"/>
<text text-anchor="middle" x="83.22" y="-170.8" font-family="Times,serif" font-size="14.00">w[0]</text>
</g>
<!-- x[1] -->
<g id="node2" class="node">
<title>x[1]</title>
<ellipse fill="none" stroke="black" cx="34" cy="-142" rx="18" ry="18"/>
<text text-anchor="middle" x="34" y="-137.8" font-family="Times,serif" font-size="14.00">x[1]</text>
</g>
<!-- x[1]&#45;&gt;y -->
<g id="edge2" class="edge">
<title>x[1]&#45;&gt;y</title>
<path fill="none" stroke="black" d="M51.8,-137.12C66.46,-132.87 87.97,-126.62 104.95,-121.69"/>
<polygon fill="black" stroke="black" points="106.2,-124.97 114.83,-118.82 104.25,-118.25 106.2,-124.97"/>
<text text-anchor="middle" x="83.22" y="-133.8" font-family="Times,serif" font-size="14.00">w[1]</text>
</g>
<!-- x[2] -->
<g id="node3" class="node">
<title>x[2]</title>
<ellipse fill="none" stroke="black" cx="34" cy="-88" rx="18" ry="18"/>
<text text-anchor="middle" x="34" y="-83.8" font-family="Times,serif" font-size="14.00">x[2]</text>
</g>
<!-- x[2]&#45;&gt;y -->
<g id="edge3" class="edge">
<title>x[2]&#45;&gt;y</title>
<path fill="none" stroke="black" d="M51.8,-92.53C66.46,-96.48 87.97,-102.28 104.95,-106.86"/>
<polygon fill="black" stroke="black" points="104.26,-110.3 114.83,-109.52 106.09,-103.54 104.26,-110.3"/>
<text text-anchor="middle" x="83.22" y="-103.8" font-family="Times,serif" font-size="14.00">w[2]</text>
</g>
<!-- x[3] -->
<g id="node4" class="node">
<title>x[3]</title>
<ellipse fill="none" stroke="black" cx="34" cy="-34" rx="18" ry="18"/>
<text text-anchor="middle" x="34" y="-29.8" font-family="Times,serif" font-size="14.00">x[3]</text>
</g>
<!-- x[3]&#45;&gt;y -->
<g id="edge4" class="edge">
<title>x[3]&#45;&gt;y</title>
<path fill="none" stroke="black" d="M48.41,-45.12C64.46,-58.44 91.52,-80.89 110.37,-96.53"/>
<polygon fill="black" stroke="black" points="108.21,-99.28 118.14,-102.97 112.68,-93.89 108.21,-99.28"/>
<text text-anchor="middle" x="83.22" y="-79.8" font-family="Times,serif" font-size="14.00">w[3]</text>
</g>
</g>
</svg>
